<svg version="1.1" id="Layer_1" xmlns="http://www.w3.org/2000/svg" xmlns:xlink="http://www.w3.org/1999/xlink" x="0px" y="0px"
	 width="100px" viewBox="0 0 303 138" enable-background="new 0 0 303 138" xml:space="preserve">

<path fill="#860EA6" opacity="1.000000" stroke="none" 
	d="
M109.699364,25.863918 
	C110.110764,27.296047 110.522163,28.728176 110.854263,30.923294 
	C111.701973,33.134769 112.628967,34.583252 113.555962,36.031734 
	C114.980316,41.050056 116.246361,46.119911 117.859726,51.076710 
	C122.124268,64.178749 126.438042,77.266663 130.922821,90.294586 
	C135.426987,103.378899 140.161194,116.384018 144.397675,129.726196 
	C127.196808,130.033188 110.392639,129.998703 93.589249,130.097260 
	C91.710876,130.108261 89.836922,130.874405 87.960922,131.290344 
	C84.553535,131.091431 81.146156,130.892502 77.904343,130.703247 
	C77.904343,127.162567 77.904343,124.100349 78.242790,120.439026 
	C78.735931,117.553772 80.330872,114.441765 76.136330,114.301186 
	C70.373619,114.108078 64.599594,114.252861 58.498909,114.252861 
	C58.498909,119.778229 58.498909,124.690132 58.498909,130.026382 
	C45.194168,130.026382 31.890776,129.977081 18.588608,130.082336 
	C16.707096,130.097229 14.831544,130.865219 12.953232,131.284637 
	C9.266134,131.098129 5.579038,130.911606 1.445971,130.862549 
	C1.000000,129.933334 1.000000,128.866653 1.298953,127.611656 
	C2.361037,125.810715 3.305862,124.257965 3.859752,122.576439 
	C10.969923,100.991081 18.066826,79.401131 25.069004,57.780571 
	C27.435602,50.473255 29.574678,43.090748 31.731976,35.717510 
	C34.902954,24.879705 37.996964,14.019382 41.583649,3.163455 
	C62.423637,3.116019 82.803741,3.073779 103.183838,3.031539 
	C104.099655,5.859204 105.015472,8.686869 105.673889,12.182475 
	C106.844109,17.188251 108.271736,21.526085 109.699364,25.863918 
M46.982510,10.939860 
	C46.768402,11.375729 46.490952,11.792007 46.349232,12.250263 
	C37.210056,41.803146 28.088144,71.361366 18.948408,100.914078 
	C16.617306,108.451538 14.232808,115.972481 11.627239,124.284515 
	C13.779136,123.716988 14.981230,123.399948 16.660482,123.751701 
	C28.254827,123.751701 39.849174,123.751701 51.418102,123.751701 
	C51.934193,118.278099 52.408398,113.248734 52.874054,108.310013 
	C63.704361,108.310013 73.783966,108.310013 84.152252,108.310013 
	C84.552765,111.555618 84.737167,114.551704 85.327202,117.465660 
	C86.134048,121.450386 87.884804,124.168045 92.841408,124.024788 
	C103.330681,123.721626 113.834808,123.932396 124.332848,123.932381 
	C127.380035,123.932373 130.427231,123.932381 132.872543,123.932381 
	C121.436646,86.637474 110.173882,49.907188 99.023064,12.313300 
	C97.810440,11.152445 96.612289,8.999251 95.382996,8.981323 
	C79.843651,8.754691 64.299751,8.821168 48.757393,8.894087 
	C48.170555,8.896839 47.587582,9.722733 46.982510,10.939860 
z"/>

<path fill="#8505A8" opacity="1.000000" stroke="none" 
	d="
M273.977264,131.197815 
	C272.910919,129.618668 271.844574,128.039520 270.449768,125.876762 
	C269.582733,123.586555 269.044128,121.879967 268.533936,120.263351 
	C263.964844,122.970978 266.477600,129.828812 261.205872,130.823883 
	C256.917664,131.633331 252.355545,130.979324 247.915024,131.002167 
	C246.602814,131.008911 245.291122,131.110397 243.725800,131.143829 
	C243.295135,131.394348 243.117859,131.669525 242.947388,131.958374 
	C242.954208,131.972076 242.922684,131.946182 242.554520,131.966507 
	C236.808990,129.575256 242.987640,127.278885 242.532013,124.740829 
	C247.318787,118.041008 251.878693,111.546043 256.266266,104.936691 
	C256.698364,104.285789 256.404846,102.711830 255.888611,101.941071 
	C250.753983,94.275124 245.501572,86.688065 240.186188,78.741028 
	C239.698715,78.174644 239.307480,77.945930 238.916260,77.717209 
	C240.217834,77.145790 241.508087,76.112640 242.822861,76.080437 
	C249.626862,75.913788 256.449280,76.252724 263.241302,75.922668 
	C268.506714,75.666809 270.590332,78.684891 272.069305,82.884003 
	C272.434998,83.922234 273.031708,84.879082 273.516327,85.861382 
	C274.028748,85.679199 274.545563,85.618935 274.573639,85.467834 
	C276.303040,76.163422 282.695038,75.038742 290.620178,75.919609 
	C294.718414,76.375122 298.912903,75.964851 303.531952,75.972870 
	C304.000000,76.444443 304.000000,76.888893 303.639435,77.640106 
	C301.730957,79.339958 299.877472,80.513512 298.690338,82.165817 
	C294.530029,87.956299 290.827606,94.086189 286.504120,99.745537 
	C283.434387,103.763748 284.328156,106.474663 288.027191,109.040497 
	C287.983185,109.058289 287.932648,108.977936 288.101196,109.005608 
	C288.461243,109.160873 288.618500,109.321861 288.881653,109.867081 
	C293.722565,116.783768 298.423401,123.349602 302.862732,130.266464 
	C293.059937,130.810928 283.518616,131.004379 273.977264,131.197815 
z"/>
<path fill="#FAD240" opacity="1.000000" stroke="none" 
	d="
M304.000000,85.555840 
	C303.487091,86.037827 302.678467,85.879524 302.504364,86.142036 
	C297.630737,93.491440 292.821259,100.883415 288.036194,108.645538 
	C284.328156,106.474663 283.434387,103.763748 286.504120,99.745537 
	C290.827606,94.086189 294.530029,87.956299 298.690338,82.165817 
	C299.877472,80.513512 301.730957,79.339958 303.639435,77.973434 
	C304.000000,80.370560 304.000000,82.741112 304.000000,85.555840 
z"/>
<path fill="#CCD1D3" opacity="1.000000" stroke="none" 
	d="
M41.583649,3.163455 
	C41.282822,2.647505 41.441883,2.126359 41.300476,1.302607 
	C61.354229,1.000000 81.708458,1.000000 102.531342,1.000000 
	C102.949982,1.426565 102.899971,1.853130 103.016899,2.655617 
	C82.803741,3.073779 62.423637,3.116019 41.583649,3.163455 
z"/>
<path fill="#FFD832" opacity="1.000000" stroke="none" 
	d="
M302.862732,130.266464 
	C303.124207,129.915436 303.557922,130.000977 303.778961,130.000488 
	C304.000000,131.388885 304.000000,132.777786 304.000000,134.583344 
	C296.027710,134.997910 288.053680,134.899841 280.084137,135.046875 
	C277.371094,135.096924 275.231506,134.730988 274.140045,131.523056 
	C283.518616,131.004379 293.059937,130.810928 302.862732,130.266464 
z"/>
<path fill="#8302A8" opacity="1.000000" stroke="none" 
	d="
M197.944687,131.293564 
	C197.331406,129.922501 196.179474,128.544678 196.196564,127.181526 
	C196.277557,120.726738 196.841965,114.278122 196.926910,107.823265 
	C197.065109,97.320839 196.964188,86.815269 196.964188,76.001160 
	C203.621262,76.001160 210.763275,76.113922 217.899506,75.959595 
	C222.302200,75.864372 226.696533,75.146240 231.093735,75.154808 
	C232.721451,75.157982 234.346680,76.439438 235.936218,77.960815 
	C236.357803,83.018852 236.816208,87.253990 237.323929,91.944725 
	C231.702499,91.627922 226.504883,91.335014 220.966232,91.022873 
	C220.966232,92.905052 220.966232,94.287483 220.966232,96.244324 
	C225.798615,96.244324 230.409317,96.244324 235.028015,96.462990 
	C235.036011,96.681656 234.947281,97.110184 234.571808,97.307571 
	C234.196335,101.376556 234.196335,105.248161 234.196335,109.212646 
	C229.393250,109.212646 225.299728,109.212646 220.784271,109.212646 
	C220.885391,111.505043 220.975464,113.547142 221.045059,115.124893 
	C227.006485,114.709373 232.447845,114.330101 238.018646,114.276138 
	C238.433670,115.686386 238.719284,116.771339 238.673691,118.080322 
	C237.516602,122.744125 236.690720,127.183899 235.926239,131.293564 
	C222.740891,131.293564 210.342789,131.293564 197.944687,131.293564 
z"/>
<path fill="#8302A8" opacity="1.000000" stroke="none" 
	d="
M152.985474,131.252701 
	C152.331100,129.030579 151.676727,126.808472 151.473724,124.139267 
	C152.232468,123.144394 152.804779,122.598289 152.808273,122.048576 
	C152.885040,109.912773 152.934174,97.776337 152.849091,85.640984 
	C152.843109,84.788116 151.756958,83.942825 151.173096,83.094009 
	C151.047211,80.758316 150.921341,78.422623 150.790848,76.001259 
	C157.902603,76.001259 165.195953,75.888237 172.480301,76.094093 
	C173.985046,76.136620 175.456238,77.366226 176.641632,78.669342 
	C175.767944,91.064857 175.195511,102.839760 174.572998,115.644676 
	C176.942413,114.801926 178.057312,114.405380 179.172211,114.008835 
	C182.359406,113.993187 185.561829,113.794449 188.725769,114.057999 
	C189.882797,114.154381 190.948395,115.348122 191.751968,116.747093 
	C190.814774,122.026230 190.181320,126.599518 189.536789,131.252701 
	C177.162292,131.252701 165.073883,131.252701 152.985474,131.252701 
z"/>
<path fill="#F7CB13" opacity="1.000000" stroke="none" 
	d="
M12.964521,131.632507 
	C14.831544,130.865219 16.707096,130.097229 18.588608,130.082336 
	C31.890776,129.977081 45.194168,130.026382 58.498909,130.026382 
	C58.498909,124.690132 58.498909,119.778229 58.498909,114.252861 
	C64.599594,114.252861 70.373619,114.108078 76.136330,114.301186 
	C80.330872,114.441765 78.735931,117.553772 78.225327,120.046875 
	C73.090240,120.253807 68.311066,120.253807 62.991276,120.253807 
	C62.991276,123.272530 62.991276,126.209145 62.622311,129.867981 
	C62.534805,133.900146 60.548363,134.091919 57.930714,134.077164 
	C43.005978,133.993011 28.080452,134.047546 13.155196,134.054932 
	C13.095401,133.363419 13.035606,132.671906 12.964521,131.632507 
z"/>
<path fill="#FBCF0C" opacity="1.000000" stroke="none" 
	d="
M87.971268,131.607605 
	C89.836922,130.874405 91.710876,130.108261 93.589249,130.097260 
	C110.392639,129.998703 127.196808,130.033188 144.462158,130.080872 
	C145.278687,131.095703 145.633820,132.058212 145.463791,133.435913 
	C126.246063,133.911484 107.553505,133.971878 88.860939,134.032272 
	C88.567833,133.329803 88.274719,132.627335 87.971268,131.607605 
z"/>
<path fill="#FCD539" opacity="1.000000" stroke="none" 
	d="
M197.957520,131.715973 
	C210.342789,131.293564 222.740891,131.293564 235.926239,131.293564 
	C236.690720,127.183899 237.516602,122.744125 239.096222,118.143425 
	C244.499100,118.957008 240.622955,122.892036 242.256866,124.913628 
	C242.987640,127.278885 236.808990,129.575256 242.576431,132.330902 
	C242.962326,133.162125 242.958145,133.649277 242.953964,134.136444 
	C241.878052,134.363907 240.809067,134.740112 239.724930,134.790527 
	C236.661728,134.932999 233.588928,135.065353 230.526016,134.980621 
	C220.698944,134.708725 210.872147,134.390182 201.052902,133.926865 
	C199.999603,133.877167 198.996674,132.760254 197.957520,131.715973 
z"/>
<path fill="#FBD23A" opacity="1.000000" stroke="none" 
	d="
M152.986725,131.586090 
	C165.073883,131.252701 177.162292,131.252701 189.536789,131.252701 
	C190.181320,126.599518 190.814774,122.026230 191.744049,117.171181 
	C193.182922,116.952362 194.325989,117.015305 195.951492,117.104813 
	C195.279312,122.811462 195.023590,128.566483 193.806671,134.110535 
	C192.929810,138.105392 189.796524,134.670853 187.035309,134.624908 
	C175.544754,134.211029 164.748596,134.161728 153.952438,134.112427 
	C153.630951,133.381439 153.309464,132.650467 152.986725,131.586090 
z"/>
<path fill="#F9D249" opacity="1.000000" stroke="none" 
	d="
M235.020020,96.244324 
	C230.409317,96.244324 225.798615,96.244324 220.966232,96.244324 
	C220.966232,94.287483 220.966232,92.905052 220.966232,91.022873 
	C226.504883,91.335014 231.702499,91.627922 237.323929,91.944725 
	C236.816208,87.253990 236.357803,83.018852 235.973694,78.335602 
	C236.773468,77.907402 237.498932,77.927307 238.570328,77.832214 
	C239.307480,77.945930 239.698715,78.174644 240.069427,79.162796 
	C240.506210,83.904984 240.516159,88.009163 241.554474,91.834190 
	C242.477371,95.234085 241.322784,95.975792 238.431076,96.014458 
	C237.293228,96.029678 236.156998,96.164154 235.020020,96.244324 
z"/>
<path fill="#F7CB3A" opacity="1.000000" stroke="none" 
	d="
M179.103943,113.543304 
	C178.057312,114.405380 176.942413,114.801926 174.572998,115.644676 
	C175.195511,102.839760 175.767944,91.064857 176.671661,79.066528 
	C179.186722,79.005653 180.528534,78.912071 180.229050,82.379395 
	C179.348831,92.570518 179.368393,102.839363 179.103943,113.543304 
z"/>
<path fill="#FCD438" opacity="1.000000" stroke="none" 
	d="
M243.099640,134.417740 
	C242.958145,133.649277 242.962326,133.162125 242.944595,132.310577 
	C242.922684,131.946182 242.954208,131.972076 243.161102,131.890289 
	C243.643433,131.663651 243.847168,131.450302 243.979187,131.168472 
	C245.291122,131.110397 246.602814,131.008911 247.915024,131.002167 
	C252.355545,130.979324 256.917664,131.633331 261.205872,130.823883 
	C266.477600,129.828812 263.964844,122.970978 268.533936,120.263351 
	C269.044128,121.879967 269.582733,123.586555 270.168945,125.678780 
	C267.216919,134.335068 267.219116,134.177521 258.988403,134.062729 
	C253.744690,133.989594 248.493286,134.467957 243.099640,134.417740 
z"/>
<path fill="#FFE0C6" opacity="1.000000" stroke="none" 
	d="
M89.077774,134.420868 
	C107.553505,133.971878 126.246063,133.911484 145.388275,133.750916 
	C145.022903,134.099625 144.208145,134.939362 143.392792,134.939926 
	C125.360107,134.952408 107.327347,134.872101 89.077774,134.420868 
z"/>
<path fill="#B569CC" opacity="1.000000" stroke="none" 
	d="
M151.134430,83.527084 
	C151.756958,83.942825 152.843109,84.788116 152.849091,85.640984 
	C152.934174,97.776337 152.885040,109.912773 152.808273,122.048576 
	C152.804779,122.598289 152.232468,123.144394 151.552948,123.781822 
	C151.447113,116.637032 151.912857,109.402748 151.918259,102.168114 
	C151.922806,96.099007 151.390411,90.029495 151.134430,83.527084 
z"/>
<path fill="#FFDFC2" opacity="1.000000" stroke="none" 
	d="
M13.298189,134.462540 
	C28.080452,134.047546 43.005978,133.993011 57.930714,134.077164 
	C60.548363,134.091919 62.534805,133.900146 62.544441,130.325317 
	C63.034866,131.436890 63.234200,132.813339 63.532059,134.870148 
	C46.630451,134.870148 30.035818,134.870148 13.298189,134.462540 
z"/>
<path fill="#D8BC26" opacity="1.000000" stroke="none" 
	d="
M109.742111,25.420673 
	C108.271736,21.526085 106.844109,17.188251 105.593292,12.589012 
	C111.960175,15.004354 109.790848,20.334188 109.742111,25.420673 
z"/>
<path fill="#FFF4C6" opacity="1.000000" stroke="none" 
	d="
M154.173111,134.486176 
	C164.748596,134.161728 175.544754,134.211029 186.633148,134.550659 
	C176.081512,134.847290 165.237640,134.853607 154.173111,134.486176 
z"/>
<path fill="#CCBB17" opacity="1.000000" stroke="none" 
	d="
M113.252228,35.771919 
	C112.628967,34.583252 111.701973,33.134769 110.922928,31.293760 
	C111.696754,32.438190 112.322632,33.975147 113.252228,35.771919 
z"/>
<path fill="#FECF04" opacity="1.000000" stroke="none" 
	d="
M98.911118,13.176905 
	C110.173882,49.907188 121.436646,86.637474 132.872543,123.932381 
	C130.427231,123.932381 127.380035,123.932373 124.332848,123.932381 
	C113.834808,123.932396 103.330681,123.721626 92.841408,124.024788 
	C87.884804,124.168045 86.134048,121.450386 85.327202,117.465660 
	C84.737167,114.551704 84.552765,111.555618 84.152252,108.310013 
	C73.783966,108.310013 63.704361,108.310013 52.874054,108.310013 
	C52.408398,113.248734 51.934193,118.278099 51.418102,123.751701 
	C39.849174,123.751701 28.254827,123.751701 16.731760,123.219727 
	C21.209702,108.529144 25.555721,94.351280 30.043442,80.218422 
	C33.263630,70.077324 36.818146,60.041176 39.961105,49.877068 
	C43.754673,37.608963 47.270897,25.255104 51.376919,13.008773 
	C67.231422,13.013079 82.616173,12.946973 98.220306,12.979993 
	C98.439682,13.079119 98.911110,13.176906 98.911118,13.176905 
M70.005074,86.001617 
	C70.060699,86.828369 70.110558,88.377998 70.172768,88.378494 
	C73.858154,88.407921 77.549492,88.376320 81.222122,88.104996 
	C81.538361,88.081635 82.063515,86.331703 81.916458,85.483528 
	C81.541740,83.322250 80.841225,81.217461 80.043594,78.256447 
	C77.385773,66.890617 74.727959,55.524780 72.049339,44.069984 
	C69.868462,44.069984 68.083511,44.069984 66.033371,44.069984 
	C63.313499,57.227150 60.607891,70.315323 57.899063,83.419067 
	C62.299934,84.043320 66.164841,84.591553 70.005074,86.001617 
z"/>
<path fill="#F7FDF2" opacity="1.000000" stroke="none" 
	d="
M97.160622,11.016693 
	C95.666183,10.679051 94.173111,10.055157 92.677101,10.048059 
	C77.762573,9.977300 62.847553,10.008256 47.467743,10.087772 
	C47.587582,9.722733 48.170555,8.896839 48.757393,8.894087 
	C64.299751,8.821168 79.843651,8.754691 95.382996,8.981323 
	C96.612289,8.999251 97.810440,11.152445 98.967087,12.745103 
	C98.911110,13.176906 98.439682,13.079119 98.198441,12.712086 
	C97.691666,11.902267 97.426147,11.459480 97.160622,11.016693 
z"/>
<path fill="#FAD240" opacity="1.000000" stroke="none" 
	d="
M288.101196,109.005608 
	C288.129791,109.070442 288.319885,109.175682 288.622253,109.404945 
	C288.618500,109.321861 288.461243,109.160873 288.101196,109.005608 
z"/>
<path fill="#FCD539" opacity="1.000000" stroke="none" 
	d="
M243.725800,131.143829 
	C243.847168,131.450302 243.643433,131.663651 243.154297,131.876587 
	C243.117859,131.669525 243.295135,131.394348 243.725800,131.143829 
z"/>
<path fill="#FAD03D" opacity="1.000000" stroke="none" 
	d="
M234.571808,97.307571 
	C235.968491,99.008713 237.582169,100.820000 237.877472,102.825417 
	C238.368759,106.161865 238.014389,109.622833 237.952682,113.491096 
	C232.447845,114.330101 227.006485,114.709373 221.045059,115.124893 
	C220.975464,113.547142 220.885391,111.505043 220.784271,109.212646 
	C225.299728,109.212646 229.393250,109.212646 234.196335,109.212646 
	C234.196335,105.248161 234.196335,101.376556 234.571808,97.307571 
z"/>
<path fill="#8610A7" opacity="1.000000" stroke="none" 
	d="
M70.029747,85.139786 
	C66.164841,84.591553 62.299934,84.043320 57.899063,83.419067 
	C60.607891,70.315323 63.313499,57.227150 66.033371,44.069984 
	C68.083511,44.069984 69.868462,44.069984 72.049339,44.069984 
	C74.727959,55.524780 77.385773,66.890617 80.063065,79.086716 
	C80.466644,83.681335 79.091164,85.595291 75.004303,85.052132 
	C73.378723,84.836082 71.689819,85.096359 70.029747,85.139786 
M66.916115,70.613091 
	C66.520973,72.836540 66.125832,75.059982 65.675690,77.592911 
	C67.982773,77.592911 69.697205,77.592911 72.096306,77.592911 
	C71.093307,73.145973 70.208702,69.223984 69.324104,65.301987 
	C68.951935,65.369438 68.579758,65.436890 68.207588,65.504349 
	C67.811981,66.938141 67.416367,68.371933 66.916115,70.613091 
z"/>
<path fill="#FFF8FF" opacity="1.000000" stroke="none" 
	d="
M96.936630,11.402378 
	C97.426147,11.459480 97.691666,11.902267 97.979057,12.612960 
	C82.616173,12.946973 67.231422,13.013079 51.376915,13.008772 
	C52.411777,12.625537 53.913799,12.055280 55.421417,12.040056 
	C69.184608,11.901081 82.948761,11.858671 96.936630,11.402378 
z"/>
<path fill="#E9C521" opacity="1.000000" stroke="none" 
	d="
M66.968437,70.209412 
	C67.416367,68.371933 67.811981,66.938141 68.207588,65.504349 
	C68.579758,65.436890 68.951935,65.369438 69.324104,65.301987 
	C70.208702,69.223984 71.093307,73.145973 72.096306,77.592911 
	C69.697205,77.592911 67.982773,77.592911 65.675690,77.592911 
	C66.125832,75.059982 66.520973,72.836540 66.968437,70.209412 
z"/>
</svg>